<?xml version="1.0" standalone="no"?>
 <!DOCTYPE svg PUBLIC "-//W3C//DTD SVG 1.1//EN" 
 "http://www.w3.org/Graphics/SVG/1.1/DTD/svg11.dtd"> 
<svg
  xmlns:svg="http://www.w3.org/2000/svg"
  xmlns="http://www.w3.org/2000/svg"
  xmlns:xlink="http://www.w3.org/1999/xlink"
  version="1.1"
  width="29.700220cm" height="21.000720cm" viewBox="0 0 116930 82680">
<title>SVG Picture created as apple-ii-rom-adapter-F_SilkS.svg date 2021/06/11 22:01:39 </title>
  <desc>Picture generated by PCBNEW </desc>
<g style="fill:#000000; fill-opacity:1;stroke:#000000; stroke-opacity:1;
stroke-linecap:round; stroke-linejoin:round;"
 transform="translate(0 0) scale(1 1)">
</g>
<g style="fill:#000000; fill-opacity:0.0; 
stroke:#000000; stroke-width:-0.000393701; stroke-opacity:1; 
stroke-linecap:round; stroke-linejoin:round;">
</g>
<g style="fill:#000000; fill-opacity:0.0; 
stroke:#000000; stroke-width:39.3701; stroke-opacity:1; 
stroke-linecap:round; stroke-linejoin:round;">
</g>
<g style="fill:#000000; fill-opacity:0.0; 
stroke:#000000; stroke-width:59.0551; stroke-opacity:1; 
stroke-linecap:round; stroke-linejoin:round;">
<rect x="69685.9" y="65357.2" width="42519.7" height="12598.4" rx="0" />
</g>
<g style="fill:#000000; fill-opacity:0.0; 
stroke:#000000; stroke-width:39.3701; stroke-opacity:1; 
stroke-linecap:round; stroke-linejoin:round;">
</g>
<g style="fill:#000000; fill-opacity:0.0; 
stroke:#000000; stroke-width:59.0551; stroke-opacity:1; 
stroke-linecap:round; stroke-linejoin:round;">
<rect x="3937.01" y="3937.01" width="109056" height="74806" rx="0" />
</g>
<g style="fill:#000000; fill-opacity:0.0; 
stroke:#000000; stroke-width:39.3701; stroke-opacity:1; 
stroke-linecap:round; stroke-linejoin:round;">
</g>
<g style="fill:#000000; fill-opacity:0.0; 
stroke:#000000; stroke-width:59.0551; stroke-opacity:1; 
stroke-linecap:round; stroke-linejoin:round;">
<rect x="4724.41" y="4724.41" width="107481" height="73231.2" rx="0" />
</g>
<g style="fill:#000000; fill-opacity:0.0; 
stroke:#000000; stroke-width:39.3701; stroke-opacity:1; 
stroke-linecap:round; stroke-linejoin:round;">
</g>
<g style="fill:#000000; fill-opacity:0.0; 
stroke:#000000; stroke-width:59.0551; stroke-opacity:1; 
stroke-linecap:round; stroke-linejoin:round;">
<path d="M23622 4724
L23622 3937
" />
</g>
<g style="fill:#000000; fill-opacity:0.0; 
stroke:#000000; stroke-width:39.3701; stroke-opacity:1; 
stroke-linecap:round; stroke-linejoin:round;">
</g>
<g style="fill:#000000; fill-opacity:0.0; 
stroke:#000000; stroke-width:59.0551; stroke-opacity:1; 
stroke-linecap:round; stroke-linejoin:round;">
<path d="M43307 4724
L43307 3937
" />
</g>
<g style="fill:#000000; fill-opacity:0.0; 
stroke:#000000; stroke-width:39.3701; stroke-opacity:1; 
stroke-linecap:round; stroke-linejoin:round;">
</g>
<g style="fill:#000000; fill-opacity:0.0; 
stroke:#000000; stroke-width:59.0551; stroke-opacity:1; 
stroke-linecap:round; stroke-linejoin:round;">
<path d="M62992 4724
L62992 3937
" />
</g>
<g style="fill:#000000; fill-opacity:0.0; 
stroke:#000000; stroke-width:39.3701; stroke-opacity:1; 
stroke-linecap:round; stroke-linejoin:round;">
</g>
<g style="fill:#000000; fill-opacity:0.0; 
stroke:#000000; stroke-width:59.0551; stroke-opacity:1; 
stroke-linecap:round; stroke-linejoin:round;">
<path d="M82677 4724
L82677 3937
" />
</g>
<g style="fill:#000000; fill-opacity:0.0; 
stroke:#000000; stroke-width:39.3701; stroke-opacity:1; 
stroke-linecap:round; stroke-linejoin:round;">
</g>
<g style="fill:#000000; fill-opacity:0.0; 
stroke:#000000; stroke-width:59.0551; stroke-opacity:1; 
stroke-linecap:round; stroke-linejoin:round;">
<path d="M102362 4724
L102362 3937
" />
</g>
<g style="fill:#000000; fill-opacity:0.0; 
stroke:#000000; stroke-width:39.3701; stroke-opacity:1; 
stroke-linecap:round; stroke-linejoin:round;">
</g>
<g style="fill:#000000; fill-opacity:0.0; 
stroke:#000000; stroke-width:59.0551; stroke-opacity:1; 
stroke-linecap:round; stroke-linejoin:round;">
<text x="13779.5" y="4586.61"
textLength="546.494" font-size="682.415" lengthAdjust="spacingAndGlyphs"
text-anchor="start" opacity="0">1</text>
<path d="M14199 4562
L13906 4562
" />
<path d="M14052 4562
L14052 4050
L14004 4123
L13955 4172
L13906 4196
" />
</g>
<g style="fill:#000000; fill-opacity:0.0; 
stroke:#000000; stroke-width:39.3701; stroke-opacity:1; 
stroke-linecap:round; stroke-linejoin:round;">
</g>
<g style="fill:#000000; fill-opacity:0.0; 
stroke:#000000; stroke-width:59.0551; stroke-opacity:1; 
stroke-linecap:round; stroke-linejoin:round;">
<text x="33464.6" y="4586.61"
textLength="546.494" font-size="682.415" lengthAdjust="spacingAndGlyphs"
text-anchor="start" opacity="0">2</text>
<path d="M33591 4099
L33615 4074
L33664 4050
L33786 4050
L33835 4074
L33859 4099
L33884 4147
L33884 4196
L33859 4269
L33567 4562
L33884 4562
" />
</g>
<g style="fill:#000000; fill-opacity:0.0; 
stroke:#000000; stroke-width:39.3701; stroke-opacity:1; 
stroke-linecap:round; stroke-linejoin:round;">
</g>
<g style="fill:#000000; fill-opacity:0.0; 
stroke:#000000; stroke-width:59.0551; stroke-opacity:1; 
stroke-linecap:round; stroke-linejoin:round;">
<text x="53149.6" y="4586.61"
textLength="546.494" font-size="682.415" lengthAdjust="spacingAndGlyphs"
text-anchor="start" opacity="0">3</text>
<path d="M53252 4050
L53569 4050
L53398 4245
L53471 4245
L53520 4269
L53544 4294
L53569 4342
L53569 4464
L53544 4513
L53520 4537
L53471 4562
L53325 4562
L53276 4537
L53252 4513
" />
</g>
<g style="fill:#000000; fill-opacity:0.0; 
stroke:#000000; stroke-width:39.3701; stroke-opacity:1; 
stroke-linecap:round; stroke-linejoin:round;">
</g>
<g style="fill:#000000; fill-opacity:0.0; 
stroke:#000000; stroke-width:59.0551; stroke-opacity:1; 
stroke-linecap:round; stroke-linejoin:round;">
<text x="72834.6" y="4586.61"
textLength="546.494" font-size="682.415" lengthAdjust="spacingAndGlyphs"
text-anchor="start" opacity="0">4</text>
<path d="M73205 4221
L73205 4562
" />
<path d="M73083 4026
L72961 4391
L73278 4391
" />
</g>
<g style="fill:#000000; fill-opacity:0.0; 
stroke:#000000; stroke-width:39.3701; stroke-opacity:1; 
stroke-linecap:round; stroke-linejoin:round;">
</g>
<g style="fill:#000000; fill-opacity:0.0; 
stroke:#000000; stroke-width:59.0551; stroke-opacity:1; 
stroke-linecap:round; stroke-linejoin:round;">
<text x="92519.7" y="4586.61"
textLength="546.494" font-size="682.415" lengthAdjust="spacingAndGlyphs"
text-anchor="start" opacity="0">5</text>
<path d="M92914 4050
L92671 4050
L92646 4294
L92671 4269
L92719 4245
L92841 4245
L92890 4269
L92914 4294
L92939 4342
L92939 4464
L92914 4513
L92890 4537
L92841 4562
L92719 4562
L92671 4537
L92646 4513
" />
</g>
<g style="fill:#000000; fill-opacity:0.0; 
stroke:#000000; stroke-width:39.3701; stroke-opacity:1; 
stroke-linecap:round; stroke-linejoin:round;">
</g>
<g style="fill:#000000; fill-opacity:0.0; 
stroke:#000000; stroke-width:59.0551; stroke-opacity:1; 
stroke-linecap:round; stroke-linejoin:round;">
<text x="112205" y="4586.61"
textLength="546.494" font-size="682.415" lengthAdjust="spacingAndGlyphs"
text-anchor="start" opacity="0">6</text>
<path d="M112575 4050
L112477 4050
L112429 4074
L112404 4099
L112356 4172
L112331 4269
L112331 4464
L112356 4513
L112380 4537
L112429 4562
L112526 4562
L112575 4537
L112599 4513
L112624 4464
L112624 4342
L112599 4294
L112575 4269
L112526 4245
L112429 4245
L112380 4269
L112356 4294
L112331 4342
" />
</g>
<g style="fill:#000000; fill-opacity:0.0; 
stroke:#000000; stroke-width:39.3701; stroke-opacity:1; 
stroke-linecap:round; stroke-linejoin:round;">
</g>
<g style="fill:#000000; fill-opacity:0.0; 
stroke:#000000; stroke-width:59.0551; stroke-opacity:1; 
stroke-linecap:round; stroke-linejoin:round;">
<path d="M23622 77955
L23622 78742
" />
</g>
<g style="fill:#000000; fill-opacity:0.0; 
stroke:#000000; stroke-width:39.3701; stroke-opacity:1; 
stroke-linecap:round; stroke-linejoin:round;">
</g>
<g style="fill:#000000; fill-opacity:0.0; 
stroke:#000000; stroke-width:59.0551; stroke-opacity:1; 
stroke-linecap:round; stroke-linejoin:round;">
<path d="M43307 77955
L43307 78742
" />
</g>
<g style="fill:#000000; fill-opacity:0.0; 
stroke:#000000; stroke-width:39.3701; stroke-opacity:1; 
stroke-linecap:round; stroke-linejoin:round;">
</g>
<g style="fill:#000000; fill-opacity:0.0; 
stroke:#000000; stroke-width:59.0551; stroke-opacity:1; 
stroke-linecap:round; stroke-linejoin:round;">
<path d="M62992 77955
L62992 78742
" />
</g>
<g style="fill:#000000; fill-opacity:0.0; 
stroke:#000000; stroke-width:39.3701; stroke-opacity:1; 
stroke-linecap:round; stroke-linejoin:round;">
</g>
<g style="fill:#000000; fill-opacity:0.0; 
stroke:#000000; stroke-width:59.0551; stroke-opacity:1; 
stroke-linecap:round; stroke-linejoin:round;">
<path d="M82677 77955
L82677 78742
" />
</g>
<g style="fill:#000000; fill-opacity:0.0; 
stroke:#000000; stroke-width:39.3701; stroke-opacity:1; 
stroke-linecap:round; stroke-linejoin:round;">
</g>
<g style="fill:#000000; fill-opacity:0.0; 
stroke:#000000; stroke-width:59.0551; stroke-opacity:1; 
stroke-linecap:round; stroke-linejoin:round;">
<path d="M102362 77955
L102362 78742
" />
</g>
<g style="fill:#000000; fill-opacity:0.0; 
stroke:#000000; stroke-width:39.3701; stroke-opacity:1; 
stroke-linecap:round; stroke-linejoin:round;">
</g>
<g style="fill:#000000; fill-opacity:0.0; 
stroke:#000000; stroke-width:59.0551; stroke-opacity:1; 
stroke-linecap:round; stroke-linejoin:round;">
<text x="13779.5" y="78605.2"
textLength="546.494" font-size="682.415" lengthAdjust="spacingAndGlyphs"
text-anchor="start" opacity="0">1</text>
<path d="M14199 78580
L13906 78580
" />
<path d="M14052 78580
L14052 78069
L14004 78142
L13955 78190
L13906 78215
" />
</g>
<g style="fill:#000000; fill-opacity:0.0; 
stroke:#000000; stroke-width:39.3701; stroke-opacity:1; 
stroke-linecap:round; stroke-linejoin:round;">
</g>
<g style="fill:#000000; fill-opacity:0.0; 
stroke:#000000; stroke-width:59.0551; stroke-opacity:1; 
stroke-linecap:round; stroke-linejoin:round;">
<text x="33464.6" y="78605.2"
textLength="546.494" font-size="682.415" lengthAdjust="spacingAndGlyphs"
text-anchor="start" opacity="0">2</text>
<path d="M33591 78117
L33615 78093
L33664 78069
L33786 78069
L33835 78093
L33859 78117
L33884 78166
L33884 78215
L33859 78288
L33567 78580
L33884 78580
" />
</g>
<g style="fill:#000000; fill-opacity:0.0; 
stroke:#000000; stroke-width:39.3701; stroke-opacity:1; 
stroke-linecap:round; stroke-linejoin:round;">
</g>
<g style="fill:#000000; fill-opacity:0.0; 
stroke:#000000; stroke-width:59.0551; stroke-opacity:1; 
stroke-linecap:round; stroke-linejoin:round;">
<text x="53149.6" y="78605.2"
textLength="546.494" font-size="682.415" lengthAdjust="spacingAndGlyphs"
text-anchor="start" opacity="0">3</text>
<path d="M53252 78069
L53569 78069
L53398 78263
L53471 78263
L53520 78288
L53544 78312
L53569 78361
L53569 78483
L53544 78532
L53520 78556
L53471 78580
L53325 78580
L53276 78556
L53252 78532
" />
</g>
<g style="fill:#000000; fill-opacity:0.0; 
stroke:#000000; stroke-width:39.3701; stroke-opacity:1; 
stroke-linecap:round; stroke-linejoin:round;">
</g>
<g style="fill:#000000; fill-opacity:0.0; 
stroke:#000000; stroke-width:59.0551; stroke-opacity:1; 
stroke-linecap:round; stroke-linejoin:round;">
<text x="72834.6" y="78605.2"
textLength="546.494" font-size="682.415" lengthAdjust="spacingAndGlyphs"
text-anchor="start" opacity="0">4</text>
<path d="M73205 78239
L73205 78580
" />
<path d="M73083 78044
L72961 78410
L73278 78410
" />
</g>
<g style="fill:#000000; fill-opacity:0.0; 
stroke:#000000; stroke-width:39.3701; stroke-opacity:1; 
stroke-linecap:round; stroke-linejoin:round;">
</g>
<g style="fill:#000000; fill-opacity:0.0; 
stroke:#000000; stroke-width:59.0551; stroke-opacity:1; 
stroke-linecap:round; stroke-linejoin:round;">
<text x="92519.7" y="78605.2"
textLength="546.494" font-size="682.415" lengthAdjust="spacingAndGlyphs"
text-anchor="start" opacity="0">5</text>
<path d="M92914 78069
L92671 78069
L92646 78312
L92671 78288
L92719 78263
L92841 78263
L92890 78288
L92914 78312
L92939 78361
L92939 78483
L92914 78532
L92890 78556
L92841 78580
L92719 78580
L92671 78556
L92646 78532
" />
</g>
<g style="fill:#000000; fill-opacity:0.0; 
stroke:#000000; stroke-width:39.3701; stroke-opacity:1; 
stroke-linecap:round; stroke-linejoin:round;">
</g>
<g style="fill:#000000; fill-opacity:0.0; 
stroke:#000000; stroke-width:59.0551; stroke-opacity:1; 
stroke-linecap:round; stroke-linejoin:round;">
<text x="112205" y="78605.2"
textLength="546.494" font-size="682.415" lengthAdjust="spacingAndGlyphs"
text-anchor="start" opacity="0">6</text>
<path d="M112575 78069
L112477 78069
L112429 78093
L112404 78117
L112356 78190
L112331 78288
L112331 78483
L112356 78532
L112380 78556
L112429 78580
L112526 78580
L112575 78556
L112599 78532
L112624 78483
L112624 78361
L112599 78312
L112575 78288
L112526 78263
L112429 78263
L112380 78288
L112356 78312
L112331 78361
" />
</g>
<g style="fill:#000000; fill-opacity:0.0; 
stroke:#000000; stroke-width:39.3701; stroke-opacity:1; 
stroke-linecap:round; stroke-linejoin:round;">
</g>
<g style="fill:#000000; fill-opacity:0.0; 
stroke:#000000; stroke-width:59.0551; stroke-opacity:1; 
stroke-linecap:round; stroke-linejoin:round;">
<path d="M3937 23622
L4724 23622
" />
</g>
<g style="fill:#000000; fill-opacity:0.0; 
stroke:#000000; stroke-width:39.3701; stroke-opacity:1; 
stroke-linecap:round; stroke-linejoin:round;">
</g>
<g style="fill:#000000; fill-opacity:0.0; 
stroke:#000000; stroke-width:59.0551; stroke-opacity:1; 
stroke-linecap:round; stroke-linejoin:round;">
<path d="M3937 43307
L4724 43307
" />
</g>
<g style="fill:#000000; fill-opacity:0.0; 
stroke:#000000; stroke-width:39.3701; stroke-opacity:1; 
stroke-linecap:round; stroke-linejoin:round;">
</g>
<g style="fill:#000000; fill-opacity:0.0; 
stroke:#000000; stroke-width:59.0551; stroke-opacity:1; 
stroke-linecap:round; stroke-linejoin:round;">
<path d="M3937 62992
L4724 62992
" />
</g>
<g style="fill:#000000; fill-opacity:0.0; 
stroke:#000000; stroke-width:39.3701; stroke-opacity:1; 
stroke-linecap:round; stroke-linejoin:round;">
</g>
<g style="fill:#000000; fill-opacity:0.0; 
stroke:#000000; stroke-width:59.0551; stroke-opacity:1; 
stroke-linecap:round; stroke-linejoin:round;">
<text x="4330.71" y="14035.4"
textLength="497.75" font-size="682.415" lengthAdjust="spacingAndGlyphs"
text-anchor="middle" opacity="0">A</text>
<path d="M4208 13864
L4452 13864
" />
<path d="M4160 14011
L4330 13499
L4501 14011
" />
</g>
<g style="fill:#000000; fill-opacity:0.0; 
stroke:#000000; stroke-width:39.3701; stroke-opacity:1; 
stroke-linecap:round; stroke-linejoin:round;">
</g>
<g style="fill:#000000; fill-opacity:0.0; 
stroke:#000000; stroke-width:59.0551; stroke-opacity:1; 
stroke-linecap:round; stroke-linejoin:round;">
<text x="4330.71" y="33720.5"
textLength="570.866" font-size="682.415" lengthAdjust="spacingAndGlyphs"
text-anchor="middle" opacity="0">B</text>
<path d="M4367 33428
L4440 33452
L4464 33476
L4489 33525
L4489 33598
L4464 33647
L4440 33671
L4391 33696
L4196 33696
L4196 33184
L4367 33184
L4416 33208
L4440 33233
L4464 33281
L4464 33330
L4440 33379
L4416 33403
L4367 33428
L4196 33428
" />
</g>
<g style="fill:#000000; fill-opacity:0.0; 
stroke:#000000; stroke-width:39.3701; stroke-opacity:1; 
stroke-linecap:round; stroke-linejoin:round;">
</g>
<g style="fill:#000000; fill-opacity:0.0; 
stroke:#000000; stroke-width:59.0551; stroke-opacity:1; 
stroke-linecap:round; stroke-linejoin:round;">
<text x="4330.71" y="53405.5"
textLength="570.866" font-size="682.415" lengthAdjust="spacingAndGlyphs"
text-anchor="middle" opacity="0">C</text>
<path d="M4489 53332
L4464 53356
L4391 53381
L4342 53381
L4269 53356
L4221 53308
L4196 53259
L4172 53161
L4172 53088
L4196 52991
L4221 52942
L4269 52893
L4342 52869
L4391 52869
L4464 52893
L4489 52918
" />
</g>
<g style="fill:#000000; fill-opacity:0.0; 
stroke:#000000; stroke-width:39.3701; stroke-opacity:1; 
stroke-linecap:round; stroke-linejoin:round;">
</g>
<g style="fill:#000000; fill-opacity:0.0; 
stroke:#000000; stroke-width:59.0551; stroke-opacity:1; 
stroke-linecap:round; stroke-linejoin:round;">
<text x="4330.71" y="73090.6"
textLength="570.866" font-size="682.415" lengthAdjust="spacingAndGlyphs"
text-anchor="middle" opacity="0">D</text>
<path d="M4196 73066
L4196 72554
L4318 72554
L4391 72578
L4440 72627
L4464 72676
L4489 72773
L4489 72846
L4464 72944
L4440 72993
L4391 73041
L4318 73066
L4196 73066
" />
</g>
<g style="fill:#000000; fill-opacity:0.0; 
stroke:#000000; stroke-width:39.3701; stroke-opacity:1; 
stroke-linecap:round; stroke-linejoin:round;">
</g>
<g style="fill:#000000; fill-opacity:0.0; 
stroke:#000000; stroke-width:59.0551; stroke-opacity:1; 
stroke-linecap:round; stroke-linejoin:round;">
<path d="M112992 23622
L112205 23622
" />
</g>
<g style="fill:#000000; fill-opacity:0.0; 
stroke:#000000; stroke-width:39.3701; stroke-opacity:1; 
stroke-linecap:round; stroke-linejoin:round;">
</g>
<g style="fill:#000000; fill-opacity:0.0; 
stroke:#000000; stroke-width:59.0551; stroke-opacity:1; 
stroke-linecap:round; stroke-linejoin:round;">
<path d="M112992 43307
L112205 43307
" />
</g>
<g style="fill:#000000; fill-opacity:0.0; 
stroke:#000000; stroke-width:39.3701; stroke-opacity:1; 
stroke-linecap:round; stroke-linejoin:round;">
</g>
<g style="fill:#000000; fill-opacity:0.0; 
stroke:#000000; stroke-width:59.0551; stroke-opacity:1; 
stroke-linecap:round; stroke-linejoin:round;">
<path d="M112992 62992
L112205 62992
" />
</g>
<g style="fill:#000000; fill-opacity:0.0; 
stroke:#000000; stroke-width:39.3701; stroke-opacity:1; 
stroke-linecap:round; stroke-linejoin:round;">
</g>
<g style="fill:#000000; fill-opacity:0.0; 
stroke:#000000; stroke-width:59.0551; stroke-opacity:1; 
stroke-linecap:round; stroke-linejoin:round;">
<text x="112599" y="14035.4"
textLength="497.75" font-size="682.415" lengthAdjust="spacingAndGlyphs"
text-anchor="middle" opacity="0">A</text>
<path d="M112477 13864
L112721 13864
" />
<path d="M112428 14011
L112599 13499
L112769 14011
" />
</g>
<g style="fill:#000000; fill-opacity:0.0; 
stroke:#000000; stroke-width:39.3701; stroke-opacity:1; 
stroke-linecap:round; stroke-linejoin:round;">
</g>
<g style="fill:#000000; fill-opacity:0.0; 
stroke:#000000; stroke-width:59.0551; stroke-opacity:1; 
stroke-linecap:round; stroke-linejoin:round;">
<text x="112599" y="33720.5"
textLength="570.866" font-size="682.415" lengthAdjust="spacingAndGlyphs"
text-anchor="middle" opacity="0">B</text>
<path d="M112635 33428
L112708 33452
L112733 33476
L112757 33525
L112757 33598
L112733 33647
L112708 33671
L112660 33696
L112465 33696
L112465 33184
L112635 33184
L112684 33208
L112708 33233
L112733 33281
L112733 33330
L112708 33379
L112684 33403
L112635 33428
L112465 33428
" />
</g>
<g style="fill:#000000; fill-opacity:0.0; 
stroke:#000000; stroke-width:39.3701; stroke-opacity:1; 
stroke-linecap:round; stroke-linejoin:round;">
</g>
<g style="fill:#000000; fill-opacity:0.0; 
stroke:#000000; stroke-width:59.0551; stroke-opacity:1; 
stroke-linecap:round; stroke-linejoin:round;">
<text x="112599" y="53405.5"
textLength="570.866" font-size="682.415" lengthAdjust="spacingAndGlyphs"
text-anchor="middle" opacity="0">C</text>
<path d="M112757 53332
L112733 53356
L112660 53381
L112611 53381
L112538 53356
L112489 53308
L112465 53259
L112440 53161
L112440 53088
L112465 52991
L112489 52942
L112538 52893
L112611 52869
L112660 52869
L112733 52893
L112757 52918
" />
</g>
<g style="fill:#000000; fill-opacity:0.0; 
stroke:#000000; stroke-width:39.3701; stroke-opacity:1; 
stroke-linecap:round; stroke-linejoin:round;">
</g>
<g style="fill:#000000; fill-opacity:0.0; 
stroke:#000000; stroke-width:59.0551; stroke-opacity:1; 
stroke-linecap:round; stroke-linejoin:round;">
<text x="112599" y="73090.6"
textLength="570.866" font-size="682.415" lengthAdjust="spacingAndGlyphs"
text-anchor="middle" opacity="0">D</text>
<path d="M112465 73066
L112465 72554
L112587 72554
L112660 72578
L112708 72627
L112733 72676
L112757 72773
L112757 72846
L112733 72944
L112708 72993
L112660 73041
L112587 73066
L112465 73066
" />
</g>
<g style="fill:#000000; fill-opacity:0.0; 
stroke:#000000; stroke-width:39.3701; stroke-opacity:1; 
stroke-linecap:round; stroke-linejoin:round;">
</g>
<g style="fill:#000000; fill-opacity:0.0; 
stroke:#000000; stroke-width:59.0551; stroke-opacity:1; 
stroke-linecap:round; stroke-linejoin:round;">
<text x="78741" y="76321.7"
textLength="2758.72" font-size="787.402" lengthAdjust="spacingAndGlyphs"
text-anchor="start" opacity="0">Date: </text>
<path d="M78911 76293
L78911 75703
L79051 75703
L79136 75731
L79192 75787
L79220 75843
L79248 75956
L79248 76040
L79220 76153
L79192 76209
L79136 76265
L79051 76293
L78911 76293
" />
<path d="M79754 76293
L79754 75984
L79726 75928
L79670 75899
L79557 75899
L79501 75928
" />
<path d="M79754 76265
L79698 76293
L79557 76293
L79501 76265
L79473 76209
L79473 76153
L79501 76096
L79557 76068
L79698 76068
L79754 76040
" />
<path d="M79951 75899
L80176 75899
" />
<path d="M80036 75703
L80036 76209
L80064 76265
L80120 76293
L80176 76293
" />
<path d="M80598 76265
L80542 76293
L80429 76293
L80373 76265
L80345 76209
L80345 75984
L80373 75928
L80429 75899
L80542 75899
L80598 75928
L80626 75984
L80626 76040
L80345 76096
" />
<path d="M80879 76237
L80907 76265
L80879 76293
L80851 76265
L80879 76237
L80879 76293
" />
<path d="M80879 75928
L80907 75956
L80879 75984
L80851 75956
L80879 75928
L80879 75984
" />
</g>
<g style="fill:#000000; fill-opacity:0.0; 
stroke:#000000; stroke-width:39.3701; stroke-opacity:1; 
stroke-linecap:round; stroke-linejoin:round;">
</g>
<g style="fill:#000000; fill-opacity:0.0; 
stroke:#000000; stroke-width:59.0551; stroke-opacity:1; 
stroke-linecap:round; stroke-linejoin:round;">
<path d="M69685 76577
L112205 76577
" />
</g>
<g style="fill:#000000; fill-opacity:0.0; 
stroke:#000000; stroke-width:39.3701; stroke-opacity:1; 
stroke-linecap:round; stroke-linejoin:round;">
</g>
<g style="fill:#000000; fill-opacity:0.0; 
stroke:#000000; stroke-width:59.0551; stroke-opacity:1; 
stroke-linecap:round; stroke-linejoin:round;">
<text x="70079.6" y="77424.1"
textLength="12010.7" font-size="787.402" lengthAdjust="spacingAndGlyphs"
text-anchor="start" opacity="0">KiCad E.D.A.  kicad 5.1.10</text>
<path d="M70249 77395
L70249 76805
" />
<path d="M70587 77395
L70334 77058
" />
<path d="M70587 76805
L70249 77142
" />
<path d="M70840 77395
L70840 77002
" />
<path d="M70840 76805
L70812 76833
L70840 76861
L70868 76833
L70840 76805
L70840 76861
" />
<path d="M71458 77339
L71430 77367
L71346 77395
L71290 77395
L71205 77367
L71149 77311
L71121 77255
L71093 77142
L71093 77058
L71121 76946
L71149 76889
L71205 76833
L71290 76805
L71346 76805
L71430 76833
L71458 76861
" />
<path d="M71965 77395
L71965 77086
L71937 77030
L71880 77002
L71768 77002
L71712 77030
" />
<path d="M71965 77367
L71908 77395
L71768 77395
L71712 77367
L71683 77311
L71683 77255
L71712 77199
L71768 77171
L71908 77171
L71965 77142
" />
<path d="M72499 77395
L72499 76805
" />
<path d="M72499 77367
L72443 77395
L72330 77395
L72274 77367
L72246 77339
L72218 77283
L72218 77114
L72246 77058
L72274 77030
L72330 77002
L72443 77002
L72499 77030
" />
<path d="M73230 77086
L73427 77086
" />
<path d="M73511 77395
L73230 77395
L73230 76805
L73511 76805
" />
<path d="M73764 77339
L73793 77367
L73764 77395
L73736 77367
L73764 77339
L73764 77395
" />
<path d="M74046 77395
L74046 76805
L74186 76805
L74271 76833
L74327 76889
L74355 76946
L74383 77058
L74383 77142
L74355 77255
L74327 77311
L74271 77367
L74186 77395
L74046 77395
" />
<path d="M74636 77339
L74664 77367
L74636 77395
L74608 77367
L74636 77339
L74636 77395
" />
<path d="M74889 77227
L75171 77227
" />
<path d="M74833 77395
L75030 76805
L75227 77395
" />
<path d="M75424 77339
L75452 77367
L75424 77395
L75395 77367
L75424 77339
L75424 77395
" />
<path d="M76605 77395
L76605 76805
" />
<path d="M76661 77171
L76830 77395
" />
<path d="M76830 77002
L76605 77227
" />
<path d="M77083 77395
L77083 77002
" />
<path d="M77083 76805
L77055 76833
L77083 76861
L77111 76833
L77083 76805
L77083 76861
" />
<path d="M77617 77367
L77561 77395
L77448 77395
L77392 77367
L77364 77339
L77336 77283
L77336 77114
L77364 77058
L77392 77030
L77448 77002
L77561 77002
L77617 77030
" />
<path d="M78123 77395
L78123 77086
L78095 77030
L78039 77002
L77926 77002
L77870 77030
" />
<path d="M78123 77367
L78067 77395
L77926 77395
L77870 77367
L77842 77311
L77842 77255
L77870 77199
L77926 77171
L78067 77171
L78123 77142
" />
<path d="M78658 77395
L78658 76805
" />
<path d="M78658 77367
L78601 77395
L78489 77395
L78433 77367
L78404 77339
L78376 77283
L78376 77114
L78404 77058
L78433 77030
L78489 77002
L78601 77002
L78658 77030
" />
<path d="M79670 76805
L79389 76805
L79361 77086
L79389 77058
L79445 77030
L79586 77030
L79642 77058
L79670 77086
L79698 77142
L79698 77283
L79670 77339
L79642 77367
L79586 77395
L79445 77395
L79389 77367
L79361 77339
" />
<path d="M79951 77339
L79979 77367
L79951 77395
L79923 77367
L79951 77339
L79951 77395
" />
<path d="M80542 77395
L80204 77395
" />
<path d="M80373 77395
L80373 76805
L80317 76889
L80260 76946
L80204 76974
" />
<path d="M80795 77339
L80823 77367
L80795 77395
L80767 77367
L80795 77339
L80795 77395
" />
<path d="M81385 77395
L81048 77395
" />
<path d="M81217 77395
L81217 76805
L81160 76889
L81104 76946
L81048 76974
" />
<path d="M81751 76805
L81807 76805
L81863 76833
L81892 76861
L81920 76917
L81948 77030
L81948 77171
L81920 77283
L81892 77339
L81863 77367
L81807 77395
L81751 77395
L81695 77367
L81667 77339
L81638 77283
L81610 77171
L81610 77030
L81638 76917
L81667 76861
L81695 76833
L81751 76805
" />
</g>
<g style="fill:#000000; fill-opacity:0.0; 
stroke:#000000; stroke-width:39.3701; stroke-opacity:1; 
stroke-linecap:round; stroke-linejoin:round;">
</g>
<g style="fill:#000000; fill-opacity:0.0; 
stroke:#000000; stroke-width:59.0551; stroke-opacity:1; 
stroke-linecap:round; stroke-linejoin:round;">
<path d="M69685 75396
L112205 75396
" />
</g>
<g style="fill:#000000; fill-opacity:0.0; 
stroke:#000000; stroke-width:39.3701; stroke-opacity:1; 
stroke-linecap:round; stroke-linejoin:round;">
</g>
<g style="fill:#000000; fill-opacity:0.0; 
stroke:#000000; stroke-width:118.11; stroke-opacity:1; 
stroke-linecap:round; stroke-linejoin:round;">
<text x="103544" y="76321.7"
textLength="2336.9" font-size="787.402" lengthAdjust="spacingAndGlyphs"
text-anchor="start" opacity="0">Rev: </text>
<path d="M104099 76293
L103902 76012
" />
<path d="M103761 76293
L103761 75703
L103986 75703
L104042 75731
L104070 75759
L104099 75815
L104099 75899
L104070 75956
L104042 75984
L103986 76012
L103761 76012
" />
<path d="M104577 76265
L104520 76293
L104408 76293
L104352 76265
L104323 76209
L104323 75984
L104352 75928
L104408 75899
L104520 75899
L104577 75928
L104605 75984
L104605 76040
L104323 76096
" />
<path d="M104802 75899
L104942 76293
L105083 75899
" />
<path d="M105308 76237
L105336 76265
L105308 76293
L105280 76265
L105308 76237
L105308 76293
" />
<path d="M105308 75928
L105336 75956
L105308 75984
L105280 75956
L105308 75928
L105308 75984
" />
</g>
<g style="fill:#000000; fill-opacity:0.0; 
stroke:#000000; stroke-width:39.3701; stroke-opacity:1; 
stroke-linecap:round; stroke-linejoin:round;">
</g>
<g style="fill:#000000; fill-opacity:0.0; 
stroke:#000000; stroke-width:59.0551; stroke-opacity:1; 
stroke-linecap:round; stroke-linejoin:round;">
<text x="70079.6" y="76321.7"
textLength="3781.21" font-size="787.402" lengthAdjust="spacingAndGlyphs"
text-anchor="start" opacity="0">Size: A4</text>
<path d="M70221 76265
L70305 76293
L70446 76293
L70502 76265
L70530 76237
L70559 76181
L70559 76124
L70530 76068
L70502 76040
L70446 76012
L70334 75984
L70277 75956
L70249 75928
L70221 75871
L70221 75815
L70249 75759
L70277 75731
L70334 75703
L70474 75703
L70559 75731
" />
<path d="M70812 76293
L70812 75899
" />
<path d="M70812 75703
L70784 75731
L70812 75759
L70840 75731
L70812 75703
L70812 75759
" />
<path d="M71037 75899
L71346 75899
L71037 76293
L71346 76293
" />
<path d="M71796 76265
L71740 76293
L71627 76293
L71571 76265
L71543 76209
L71543 75984
L71571 75928
L71627 75899
L71740 75899
L71796 75928
L71824 75984
L71824 76040
L71543 76096
" />
<path d="M72077 76237
L72105 76265
L72077 76293
L72049 76265
L72077 76237
L72077 76293
" />
<path d="M72077 75928
L72105 75956
L72077 75984
L72049 75956
L72077 75928
L72077 75984
" />
<path d="M72780 76124
L73061 76124
" />
<path d="M72724 76293
L72921 75703
L73118 76293
" />
<path d="M73568 75899
L73568 76293
" />
<path d="M73427 75674
L73286 76096
L73652 76096
" />
</g>
<g style="fill:#000000; fill-opacity:0.0; 
stroke:#000000; stroke-width:39.3701; stroke-opacity:1; 
stroke-linecap:round; stroke-linejoin:round;">
</g>
<g style="fill:#000000; fill-opacity:0.0; 
stroke:#000000; stroke-width:59.0551; stroke-opacity:1; 
stroke-linecap:round; stroke-linejoin:round;">
<text x="103544" y="77424.1"
textLength="3349.27" font-size="787.402" lengthAdjust="spacingAndGlyphs"
text-anchor="start" opacity="0">Id: 1/1</text>
<path d="M103714 77395
L103714 76805
" />
<path d="M104248 77395
L104248 76805
" />
<path d="M104248 77367
L104192 77395
L104079 77395
L104023 77367
L103995 77339
L103967 77283
L103967 77114
L103995 77058
L104023 77030
L104079 77002
L104192 77002
L104248 77030
" />
<path d="M104529 77339
L104557 77367
L104529 77395
L104501 77367
L104529 77339
L104529 77395
" />
<path d="M104529 77030
L104557 77058
L104529 77086
L104501 77058
L104529 77030
L104529 77086
" />
<path d="M105570 77395
L105232 77395
" />
<path d="M105401 77395
L105401 76805
L105345 76889
L105289 76946
L105232 76974
" />
<path d="M106245 76777
L105739 77536
" />
<path d="M106751 77395
L106413 77395
" />
<path d="M106582 77395
L106582 76805
L106526 76889
L106470 76946
L106413 76974
" />
</g>
<g style="fill:#000000; fill-opacity:0.0; 
stroke:#000000; stroke-width:39.3701; stroke-opacity:1; 
stroke-linecap:round; stroke-linejoin:round;">
</g>
<g style="fill:#000000; fill-opacity:0.0; 
stroke:#000000; stroke-width:59.0551; stroke-opacity:1; 
stroke-linecap:round; stroke-linejoin:round;">
<path d="M69685 73821
L112205 73821
" />
</g>
<g style="fill:#000000; fill-opacity:0.0; 
stroke:#000000; stroke-width:39.3701; stroke-opacity:1; 
stroke-linecap:round; stroke-linejoin:round;">
</g>
<g style="fill:#000000; fill-opacity:0.0; 
stroke:#000000; stroke-width:157.48; stroke-opacity:1; 
stroke-linecap:round; stroke-linejoin:round;">
<text x="70079.6" y="74924.1"
textLength="3701.14" font-size="1049.87" lengthAdjust="spacingAndGlyphs"
text-anchor="start" opacity="0">Title: </text>
<path d="M70360 74099
L70810 74099
" />
<path d="M70486 74886
L70585 74099
" />
<path d="M70974 74886
L71039 74361
" />
<path d="M71072 74099
L71030 74136
L71063 74174
L71105 74136
L71072 74099
L71063 74174
" />
<path d="M71302 74361
L71602 74361
" />
<path d="M71447 74099
L71363 74774
L71391 74849
L71461 74886
L71536 74886
" />
<path d="M71911 74886
L71841 74849
L71813 74774
L71897 74099
" />
<path d="M72516 74849
L72436 74886
L72286 74886
L72216 74849
L72187 74774
L72225 74474
L72272 74399
L72352 74361
L72501 74361
L72572 74399
L72600 74474
L72591 74549
L72206 74624
" />
<path d="M72895 74811
L72928 74849
L72886 74886
L72853 74849
L72895 74811
L72886 74886
" />
<path d="M72947 74399
L72980 74436
L72937 74474
L72905 74436
L72947 74399
L72937 74474
" />
</g>
<g style="fill:#000000; fill-opacity:0.0; 
stroke:#000000; stroke-width:39.3701; stroke-opacity:1; 
stroke-linecap:round; stroke-linejoin:round;">
</g>
<g style="fill:#000000; fill-opacity:0.0; 
stroke:#000000; stroke-width:59.0551; stroke-opacity:1; 
stroke-linecap:round; stroke-linejoin:round;">
<text x="70079.6" y="73408.3"
textLength="17387" font-size="787.402" lengthAdjust="spacingAndGlyphs"
text-anchor="start" opacity="0">File: apple-ii-rom-adapter.kicad_pcb</text>
<path d="M70446 73070
L70249 73070
" />
<path d="M70249 73380
L70249 72789
L70530 72789
" />
<path d="M70755 73380
L70755 72986
" />
<path d="M70755 72789
L70727 72817
L70755 72845
L70784 72817
L70755 72789
L70755 72845
" />
<path d="M71121 73380
L71065 73352
L71037 73295
L71037 72789
" />
<path d="M71571 73352
L71515 73380
L71402 73380
L71346 73352
L71318 73295
L71318 73070
L71346 73014
L71402 72986
L71515 72986
L71571 73014
L71599 73070
L71599 73127
L71318 73183
" />
<path d="M71852 73323
L71880 73352
L71852 73380
L71824 73352
L71852 73323
L71852 73380
" />
<path d="M71852 73014
L71880 73042
L71852 73070
L71824 73042
L71852 73014
L71852 73070
" />
<path d="M72836 73380
L72836 73070
L72808 73014
L72752 72986
L72640 72986
L72583 73014
" />
<path d="M72836 73352
L72780 73380
L72640 73380
L72583 73352
L72555 73295
L72555 73239
L72583 73183
L72640 73155
L72780 73155
L72836 73127
" />
<path d="M73118 72986
L73118 73577
" />
<path d="M73118 73014
L73174 72986
L73286 72986
L73343 73014
L73371 73042
L73399 73099
L73399 73267
L73371 73323
L73343 73352
L73286 73380
L73174 73380
L73118 73352
" />
<path d="M73652 72986
L73652 73577
" />
<path d="M73652 73014
L73708 72986
L73821 72986
L73877 73014
L73905 73042
L73933 73099
L73933 73267
L73905 73323
L73877 73352
L73821 73380
L73708 73380
L73652 73352
" />
<path d="M74271 73380
L74214 73352
L74186 73295
L74186 72789
" />
<path d="M74721 73352
L74664 73380
L74552 73380
L74496 73352
L74467 73295
L74467 73070
L74496 73014
L74552 72986
L74664 72986
L74721 73014
L74749 73070
L74749 73127
L74467 73183
" />
<path d="M75002 73155
L75452 73155
" />
<path d="M75733 73380
L75733 72986
" />
<path d="M75733 72789
L75705 72817
L75733 72845
L75761 72817
L75733 72789
L75733 72845
" />
<path d="M76014 73380
L76014 72986
" />
<path d="M76014 72789
L75986 72817
L76014 72845
L76042 72817
L76014 72789
L76014 72845
" />
<path d="M76295 73155
L76745 73155
" />
<path d="M77027 73380
L77027 72986
" />
<path d="M77027 73099
L77055 73042
L77083 73014
L77139 72986
L77195 72986
" />
<path d="M77476 73380
L77420 73352
L77392 73323
L77364 73267
L77364 73099
L77392 73042
L77420 73014
L77476 72986
L77561 72986
L77617 73014
L77645 73042
L77673 73099
L77673 73267
L77645 73323
L77617 73352
L77561 73380
L77476 73380
" />
<path d="M77926 73380
L77926 72986
" />
<path d="M77926 73042
L77955 73014
L78011 72986
L78095 72986
L78151 73014
L78180 73070
L78180 73380
" />
<path d="M78180 73070
L78208 73014
L78264 72986
L78348 72986
L78404 73014
L78433 73070
L78433 73380
" />
<path d="M78714 73155
L79164 73155
" />
<path d="M79698 73380
L79698 73070
L79670 73014
L79614 72986
L79501 72986
L79445 73014
" />
<path d="M79698 73352
L79642 73380
L79501 73380
L79445 73352
L79417 73295
L79417 73239
L79445 73183
L79501 73155
L79642 73155
L79698 73127
" />
<path d="M80232 73380
L80232 72789
" />
<path d="M80232 73352
L80176 73380
L80064 73380
L80007 73352
L79979 73323
L79951 73267
L79951 73099
L79979 73042
L80007 73014
L80064 72986
L80176 72986
L80232 73014
" />
<path d="M80767 73380
L80767 73070
L80739 73014
L80682 72986
L80570 72986
L80514 73014
" />
<path d="M80767 73352
L80710 73380
L80570 73380
L80514 73352
L80485 73295
L80485 73239
L80514 73183
L80570 73155
L80710 73155
L80767 73127
" />
<path d="M81048 72986
L81048 73577
" />
<path d="M81048 73014
L81104 72986
L81217 72986
L81273 73014
L81301 73042
L81329 73099
L81329 73267
L81301 73323
L81273 73352
L81217 73380
L81104 73380
L81048 73352
" />
<path d="M81498 72986
L81723 72986
" />
<path d="M81582 72789
L81582 73295
L81610 73352
L81667 73380
L81723 73380
" />
<path d="M82145 73352
L82088 73380
L81976 73380
L81920 73352
L81892 73295
L81892 73070
L81920 73014
L81976 72986
L82088 72986
L82145 73014
L82173 73070
L82173 73127
L81892 73183
" />
<path d="M82426 73380
L82426 72986
" />
<path d="M82426 73099
L82454 73042
L82482 73014
L82538 72986
L82595 72986
" />
<path d="M82791 73323
L82820 73352
L82791 73380
L82763 73352
L82791 73323
L82791 73380
" />
<path d="M83073 73380
L83073 72789
" />
<path d="M83129 73155
L83298 73380
" />
<path d="M83298 72986
L83073 73211
" />
<path d="M83551 73380
L83551 72986
" />
<path d="M83551 72789
L83523 72817
L83551 72845
L83579 72817
L83551 72789
L83551 72845
" />
<path d="M84085 73352
L84029 73380
L83916 73380
L83860 73352
L83832 73323
L83804 73267
L83804 73099
L83832 73042
L83860 73014
L83916 72986
L84029 72986
L84085 73014
" />
<path d="M84591 73380
L84591 73070
L84563 73014
L84507 72986
L84394 72986
L84338 73014
" />
<path d="M84591 73352
L84535 73380
L84394 73380
L84338 73352
L84310 73295
L84310 73239
L84338 73183
L84394 73155
L84535 73155
L84591 73127
" />
<path d="M85126 73380
L85126 72789
" />
<path d="M85126 73352
L85069 73380
L84957 73380
L84901 73352
L84872 73323
L84844 73267
L84844 73099
L84872 73042
L84901 73014
L84957 72986
L85069 72986
L85126 73014
" />
<path d="M85266 73436
L85716 73436
" />
<path d="M85857 72986
L85857 73577
" />
<path d="M85857 73014
L85913 72986
L86025 72986
L86082 73014
L86110 73042
L86138 73099
L86138 73267
L86110 73323
L86082 73352
L86025 73380
L85913 73380
L85857 73352
" />
<path d="M86644 73352
L86588 73380
L86475 73380
L86419 73352
L86391 73323
L86363 73267
L86363 73099
L86391 73042
L86419 73014
L86475 72986
L86588 72986
L86644 73014
" />
<path d="M86897 73380
L86897 72789
" />
<path d="M86897 73014
L86953 72986
L87066 72986
L87122 73014
L87150 73042
L87178 73099
L87178 73267
L87150 73323
L87122 73352
L87066 73380
L86953 73380
L86897 73352
" />
</g>
<g style="fill:#000000; fill-opacity:0.0; 
stroke:#000000; stroke-width:39.3701; stroke-opacity:1; 
stroke-linecap:round; stroke-linejoin:round;">
</g>
<g style="fill:#000000; fill-opacity:0.0; 
stroke:#000000; stroke-width:59.0551; stroke-opacity:1; 
stroke-linecap:round; stroke-linejoin:round;">
<path d="M69685 71459
L112205 71459
" />
</g>
<g style="fill:#000000; fill-opacity:0.0; 
stroke:#000000; stroke-width:39.3701; stroke-opacity:1; 
stroke-linecap:round; stroke-linejoin:round;">
</g>
<g style="fill:#000000; fill-opacity:0.0; 
stroke:#000000; stroke-width:59.0551; stroke-opacity:1; 
stroke-linecap:round; stroke-linejoin:round;">
<text x="70079.6" y="72345.4"
textLength="3236.78" font-size="787.402" lengthAdjust="spacingAndGlyphs"
text-anchor="start" opacity="0">Sheet: </text>
<path d="M70221 72289
L70305 72317
L70446 72317
L70502 72289
L70530 72260
L70559 72204
L70559 72148
L70530 72092
L70502 72064
L70446 72036
L70334 72007
L70277 71979
L70249 71951
L70221 71895
L70221 71839
L70249 71782
L70277 71754
L70334 71726
L70474 71726
L70559 71754
" />
<path d="M70812 72317
L70812 71726
" />
<path d="M71065 72317
L71065 72007
L71037 71951
L70980 71923
L70896 71923
L70840 71951
L70812 71979
" />
<path d="M71571 72289
L71515 72317
L71402 72317
L71346 72289
L71318 72232
L71318 72007
L71346 71951
L71402 71923
L71515 71923
L71571 71951
L71599 72007
L71599 72064
L71318 72120
" />
<path d="M72077 72289
L72021 72317
L71908 72317
L71852 72289
L71824 72232
L71824 72007
L71852 71951
L71908 71923
L72021 71923
L72077 71951
L72105 72007
L72105 72064
L71824 72120
" />
<path d="M72274 71923
L72499 71923
" />
<path d="M72358 71726
L72358 72232
L72386 72289
L72443 72317
L72499 72317
" />
<path d="M72696 72260
L72724 72289
L72696 72317
L72668 72289
L72696 72260
L72696 72317
" />
<path d="M72696 71951
L72724 71979
L72696 72007
L72668 71979
L72696 71951
L72696 72007
" />
</g>
<g style="fill:#000000; fill-opacity:0.0; 
stroke:#000000; stroke-width:39.3701; stroke-opacity:1; 
stroke-linecap:round; stroke-linejoin:round;">
</g>
<g style="fill:#000000; fill-opacity:0.0; 
stroke:#000000; stroke-width:59.0551; stroke-opacity:1; 
stroke-linecap:round; stroke-linejoin:round;">
<path d="M77559 75396
L77559 76577
" />
</g>
<g style="fill:#000000; fill-opacity:0.0; 
stroke:#000000; stroke-width:39.3701; stroke-opacity:1; 
stroke-linecap:round; stroke-linejoin:round;">
</g>
<g style="fill:#000000; fill-opacity:0.0; 
stroke:#000000; stroke-width:59.0551; stroke-opacity:1; 
stroke-linecap:round; stroke-linejoin:round;">
<path d="M102756 75396
L102756 77955
" />
</g>
<g style="fill:#008484; fill-opacity:0.0; 
stroke:#008484; stroke-width:59.0551; stroke-opacity:1; 
stroke-linecap:round; stroke-linejoin:round;">
</g>
<g style="fill:#008484; fill-opacity:0.0; 
stroke:#008484; stroke-width:50.9252; stroke-opacity:1; 
stroke-linecap:round; stroke-linejoin:round;">
<g transform="rotate(90 7237.21 8700)">
<text x="7237.21" y="8846.85"
textLength="3997.27" font-size="271.601" lengthAdjust="spacingAndGlyphs"
text-anchor="middle" opacity="0">28C256 to Apple-ii Rev0</text>
</g>
<path d="M7370 6769
L7384 6779
L7398 6798
L7398 6847
L7384 6866
L7370 6876
L7342 6886
L7314 6886
L7272 6876
L7104 6759
L7104 6886
" />
<path d="M7272 7002
L7286 6983
L7300 6973
L7328 6963
L7342 6963
L7370 6973
L7384 6983
L7398 7002
L7398 7041
L7384 7060
L7370 7070
L7342 7080
L7328 7080
L7300 7070
L7286 7060
L7272 7041
L7272 7002
L7258 6983
L7244 6973
L7216 6963
L7160 6963
L7132 6973
L7118 6983
L7104 7002
L7104 7041
L7118 7060
L7132 7070
L7160 7080
L7216 7080
L7244 7070
L7258 7060
L7272 7041
" />
<path d="M7132 7283
L7118 7274
L7104 7244
L7104 7225
L7118 7196
L7146 7177
L7174 7167
L7230 7157
L7272 7157
L7328 7167
L7356 7177
L7384 7196
L7398 7225
L7398 7244
L7384 7274
L7370 7283
" />
<path d="M7370 7361
L7384 7371
L7398 7390
L7398 7438
L7384 7458
L7370 7468
L7342 7477
L7314 7477
L7272 7468
L7104 7351
L7104 7477
" />
<path d="M7398 7662
L7398 7565
L7258 7555
L7272 7565
L7286 7584
L7286 7632
L7272 7652
L7258 7662
L7230 7671
L7160 7671
L7132 7662
L7118 7652
L7104 7632
L7104 7584
L7118 7565
L7132 7555
" />
<path d="M7398 7846
L7398 7807
L7384 7788
L7370 7778
L7328 7759
L7272 7749
L7160 7749
L7132 7759
L7118 7768
L7104 7788
L7104 7826
L7118 7846
L7132 7856
L7160 7865
L7230 7865
L7258 7856
L7272 7846
L7286 7826
L7286 7788
L7272 7768
L7258 7759
L7230 7749
" />
<path d="M7300 8079
L7300 8156
" />
<path d="M7398 8108
L7146 8108
L7118 8117
L7104 8137
L7104 8156
" />
<path d="M7104 8253
L7118 8234
L7132 8224
L7160 8214
L7244 8214
L7272 8224
L7286 8234
L7300 8253
L7300 8282
L7286 8302
L7272 8311
L7244 8321
L7160 8321
L7132 8311
L7118 8302
L7104 8282
L7104 8253
" />
<path d="M7188 8554
L7188 8651
" />
<path d="M7104 8535
L7398 8602
L7104 8670
" />
<path d="M7300 8738
L7006 8738
" />
<path d="M7286 8738
L7300 8758
L7300 8797
L7286 8816
L7272 8826
L7244 8835
L7160 8835
L7132 8826
L7118 8816
L7104 8797
L7104 8758
L7118 8738
" />
<path d="M7300 8923
L7006 8923
" />
<path d="M7286 8923
L7300 8942
L7300 8981
L7286 9000
L7272 9010
L7244 9020
L7160 9020
L7132 9010
L7118 9000
L7104 8981
L7104 8942
L7118 8923
" />
<path d="M7104 9136
L7118 9117
L7146 9107
L7398 9107
" />
<path d="M7118 9291
L7104 9272
L7104 9233
L7118 9214
L7146 9204
L7258 9204
L7286 9214
L7300 9233
L7300 9272
L7286 9291
L7258 9301
L7230 9301
L7202 9204
" />
<path d="M7216 9388
L7216 9543
" />
<path d="M7104 9640
L7300 9640
" />
<path d="M7398 9640
L7384 9631
L7370 9640
L7384 9650
L7398 9640
L7370 9640
" />
<path d="M7104 9737
L7300 9737
" />
<path d="M7398 9737
L7384 9728
L7370 9737
L7384 9747
L7398 9737
L7370 9737
" />
<path d="M7104 10106
L7244 10038
" />
<path d="M7104 9990
L7398 9990
L7398 10067
L7384 10087
L7370 10096
L7342 10106
L7300 10106
L7272 10096
L7258 10087
L7244 10067
L7244 9990
" />
<path d="M7118 10271
L7104 10252
L7104 10213
L7118 10193
L7146 10184
L7258 10184
L7286 10193
L7300 10213
L7300 10252
L7286 10271
L7258 10281
L7230 10281
L7202 10184
" />
<path d="M7300 10349
L7104 10397
L7300 10446
" />
<path d="M7398 10562
L7398 10581
L7384 10601
L7370 10610
L7342 10620
L7286 10630
L7216 10630
L7160 10620
L7132 10610
L7118 10601
L7104 10581
L7104 10562
L7118 10543
L7132 10533
L7160 10523
L7216 10513
L7286 10513
L7342 10523
L7370 10533
L7384 10543
L7398 10562
" />
<g transform="rotate(90 6745.74 8700)">
<text x="6745.74" y="8846.85"
textLength="1521.21" font-size="271.601" lengthAdjust="spacingAndGlyphs"
text-anchor="middle" opacity="0">Proto 0.1</text>
</g>
<path d="M6612 8020
L6906 8020
L6906 8098
L6892 8117
L6878 8127
L6850 8137
L6808 8137
L6780 8127
L6766 8117
L6752 8098
L6752 8020
" />
<path d="M6612 8224
L6808 8224
" />
<path d="M6752 8224
L6780 8234
L6794 8244
L6808 8263
L6808 8282
" />
<path d="M6612 8379
L6626 8360
L6640 8350
L6668 8341
L6752 8341
L6780 8350
L6794 8360
L6808 8379
L6808 8408
L6794 8428
L6780 8438
L6752 8447
L6668 8447
L6640 8438
L6626 8428
L6612 8408
L6612 8379
" />
<path d="M6808 8505
L6808 8583
" />
<path d="M6906 8535
L6654 8535
L6626 8544
L6612 8564
L6612 8583
" />
<path d="M6612 8680
L6626 8661
L6640 8651
L6668 8641
L6752 8641
L6780 8651
L6794 8661
L6808 8680
L6808 8709
L6794 8729
L6780 8738
L6752 8748
L6668 8748
L6640 8738
L6626 8729
L6612 8709
L6612 8680
" />
<path d="M6906 9029
L6906 9049
L6892 9068
L6878 9078
L6850 9088
L6794 9097
L6724 9097
L6668 9088
L6640 9078
L6626 9068
L6612 9049
L6612 9029
L6626 9010
L6640 9000
L6668 8991
L6724 8981
L6794 8981
L6850 8991
L6878 9000
L6892 9010
L6906 9029
" />
<path d="M6640 9185
L6626 9194
L6612 9185
L6626 9175
L6640 9185
L6612 9185
" />
<path d="M6612 9388
L6612 9272
" />
<path d="M6612 9330
L6906 9330
L6864 9311
L6836 9291
L6822 9272
" />
<g transform="rotate(90 6254.26 8700)">
<text x="6254.26" y="8846.85"
textLength="5711.62" font-size="271.601" lengthAdjust="spacingAndGlyphs"
text-anchor="middle" opacity="0">Adrian Chadd &lt;adrian@freebsd.org&gt;</text>
</g>
<path d="M6205 5916
L6205 6013
" />
<path d="M6121 5896
L6415 5964
L6121 6032
" />
<path d="M6121 6187
L6415 6187
" />
<path d="M6135 6187
L6121 6168
L6121 6129
L6135 6110
L6149 6100
L6177 6090
L6261 6090
L6289 6100
L6303 6110
L6317 6129
L6317 6168
L6303 6187
" />
<path d="M6121 6284
L6317 6284
" />
<path d="M6261 6284
L6289 6294
L6303 6304
L6317 6323
L6317 6342
" />
<path d="M6121 6410
L6317 6410
" />
<path d="M6415 6410
L6401 6401
L6387 6410
L6401 6420
L6415 6410
L6387 6410
" />
<path d="M6121 6595
L6275 6595
L6303 6585
L6317 6565
L6317 6527
L6303 6507
" />
<path d="M6135 6595
L6121 6575
L6121 6527
L6135 6507
L6163 6498
L6191 6498
L6219 6507
L6233 6527
L6233 6575
L6247 6595
" />
<path d="M6317 6692
L6121 6692
" />
<path d="M6289 6692
L6303 6701
L6317 6721
L6317 6750
L6303 6769
L6275 6779
L6121 6779
" />
<path d="M6149 7147
L6135 7138
L6121 7109
L6121 7089
L6135 7060
L6163 7041
L6191 7031
L6247 7021
L6289 7021
L6345 7031
L6373 7041
L6401 7060
L6415 7089
L6415 7109
L6401 7138
L6387 7147
" />
<path d="M6121 7235
L6415 7235
" />
<path d="M6121 7322
L6275 7322
L6303 7312
L6317 7293
L6317 7264
L6303 7244
L6289 7235
" />
<path d="M6121 7506
L6275 7506
L6303 7497
L6317 7477
L6317 7438
L6303 7419
" />
<path d="M6135 7506
L6121 7487
L6121 7438
L6135 7419
L6163 7409
L6191 7409
L6219 7419
L6233 7438
L6233 7487
L6247 7506
" />
<path d="M6121 7691
L6415 7691
" />
<path d="M6135 7691
L6121 7671
L6121 7632
L6135 7613
L6149 7603
L6177 7594
L6261 7594
L6289 7603
L6303 7613
L6317 7632
L6317 7671
L6303 7691
" />
<path d="M6121 7875
L6415 7875
" />
<path d="M6135 7875
L6121 7856
L6121 7817
L6135 7797
L6149 7788
L6177 7778
L6261 7778
L6289 7788
L6303 7797
L6317 7817
L6317 7856
L6303 7875
" />
<path d="M6317 8282
L6233 8127
L6149 8282
" />
<path d="M6121 8467
L6275 8467
L6303 8457
L6317 8438
L6317 8399
L6303 8379
" />
<path d="M6135 8467
L6121 8447
L6121 8399
L6135 8379
L6163 8370
L6191 8370
L6219 8379
L6233 8399
L6233 8447
L6247 8467
" />
<path d="M6121 8651
L6415 8651
" />
<path d="M6135 8651
L6121 8632
L6121 8593
L6135 8573
L6149 8564
L6177 8554
L6261 8554
L6289 8564
L6303 8573
L6317 8593
L6317 8632
L6303 8651
" />
<path d="M6121 8748
L6317 8748
" />
<path d="M6261 8748
L6289 8758
L6303 8767
L6317 8787
L6317 8806
" />
<path d="M6121 8874
L6317 8874
" />
<path d="M6415 8874
L6401 8864
L6387 8874
L6401 8884
L6415 8874
L6387 8874
" />
<path d="M6121 9058
L6275 9058
L6303 9049
L6317 9029
L6317 8991
L6303 8971
" />
<path d="M6135 9058
L6121 9039
L6121 8991
L6135 8971
L6163 8961
L6191 8961
L6219 8971
L6233 8991
L6233 9039
L6247 9058
" />
<path d="M6317 9155
L6121 9155
" />
<path d="M6289 9155
L6303 9165
L6317 9185
L6317 9214
L6303 9233
L6275 9243
L6121 9243
" />
<path d="M6261 9466
L6275 9456
L6289 9437
L6289 9417
L6275 9398
L6261 9388
L6233 9379
L6205 9379
L6177 9388
L6163 9398
L6149 9417
L6149 9437
L6163 9456
L6177 9466
" />
<path d="M6289 9466
L6177 9466
L6163 9476
L6163 9485
L6177 9505
L6205 9514
L6275 9514
L6317 9495
L6345 9466
L6359 9427
L6345 9388
L6317 9359
L6275 9340
L6219 9330
L6163 9340
L6121 9359
L6093 9388
L6079 9427
L6093 9466
L6121 9495
" />
<path d="M6317 9573
L6317 9650
" />
<path d="M6121 9602
L6373 9602
L6401 9611
L6415 9631
L6415 9650
" />
<path d="M6121 9718
L6317 9718
" />
<path d="M6261 9718
L6289 9728
L6303 9737
L6317 9757
L6317 9776
" />
<path d="M6135 9922
L6121 9902
L6121 9864
L6135 9844
L6163 9834
L6275 9834
L6303 9844
L6317 9864
L6317 9902
L6303 9922
L6275 9931
L6247 9931
L6219 9834
" />
<path d="M6135 10096
L6121 10077
L6121 10038
L6135 10019
L6163 10009
L6275 10009
L6303 10019
L6317 10038
L6317 10077
L6303 10096
L6275 10106
L6247 10106
L6219 10009
" />
<path d="M6121 10193
L6415 10193
" />
<path d="M6303 10193
L6317 10213
L6317 10252
L6303 10271
L6289 10281
L6261 10290
L6177 10290
L6149 10281
L6135 10271
L6121 10252
L6121 10213
L6135 10193
" />
<path d="M6135 10368
L6121 10387
L6121 10426
L6135 10446
L6163 10455
L6177 10455
L6205 10446
L6219 10426
L6219 10397
L6233 10378
L6261 10368
L6275 10368
L6303 10378
L6317 10397
L6317 10426
L6303 10446
" />
<path d="M6121 10630
L6415 10630
" />
<path d="M6135 10630
L6121 10610
L6121 10572
L6135 10552
L6149 10543
L6177 10533
L6261 10533
L6289 10543
L6303 10552
L6317 10572
L6317 10610
L6303 10630
" />
<path d="M6149 10727
L6135 10737
L6121 10727
L6135 10717
L6149 10727
L6121 10727
" />
<path d="M6121 10853
L6135 10834
L6149 10824
L6177 10814
L6261 10814
L6289 10824
L6303 10834
L6317 10853
L6317 10882
L6303 10901
L6289 10911
L6261 10921
L6177 10921
L6149 10911
L6135 10901
L6121 10882
L6121 10853
" />
<path d="M6121 11008
L6317 11008
" />
<path d="M6261 11008
L6289 11018
L6303 11028
L6317 11047
L6317 11066
" />
<path d="M6317 11222
L6079 11222
L6051 11212
L6037 11202
L6023 11183
L6023 11154
L6037 11134
" />
<path d="M6135 11222
L6121 11202
L6121 11163
L6135 11144
L6149 11134
L6177 11125
L6261 11125
L6289 11134
L6303 11144
L6317 11163
L6317 11202
L6303 11222
" />
<path d="M6317 11319
L6233 11474
L6149 11319
" />
<g transform="rotate(90 5762.79 8700)">
<text x="5762.79" y="8846.85"
textLength="2355.41" font-size="271.601" lengthAdjust="spacingAndGlyphs"
text-anchor="middle" opacity="0">11/June/2021</text>
</g>
<path d="M5629 7710
L5629 7594
" />
<path d="M5629 7652
L5923 7652
L5881 7632
L5853 7613
L5839 7594
" />
<path d="M5629 7904
L5629 7788
" />
<path d="M5629 7846
L5923 7846
L5881 7826
L5853 7807
L5839 7788
" />
<path d="M5937 8137
L5559 7962
" />
<path d="M5923 8263
L5713 8263
L5671 8253
L5643 8234
L5629 8205
L5629 8185
" />
<path d="M5825 8447
L5629 8447
" />
<path d="M5825 8360
L5671 8360
L5643 8370
L5629 8389
L5629 8418
L5643 8438
L5657 8447
" />
<path d="M5825 8544
L5629 8544
" />
<path d="M5797 8544
L5811 8554
L5825 8573
L5825 8602
L5811 8622
L5783 8632
L5629 8632
" />
<path d="M5643 8806
L5629 8787
L5629 8748
L5643 8729
L5671 8719
L5783 8719
L5811 8729
L5825 8748
L5825 8787
L5811 8806
L5783 8816
L5755 8816
L5727 8719
" />
<path d="M5937 9049
L5559 8874
" />
<path d="M5895 9107
L5909 9117
L5923 9136
L5923 9185
L5909 9204
L5895 9214
L5867 9223
L5839 9223
L5797 9214
L5629 9097
L5629 9223
" />
<path d="M5923 9349
L5923 9369
L5909 9388
L5895 9398
L5867 9408
L5811 9417
L5741 9417
L5685 9408
L5657 9398
L5643 9388
L5629 9369
L5629 9349
L5643 9330
L5657 9320
L5685 9311
L5741 9301
L5811 9301
L5867 9311
L5895 9320
L5909 9330
L5923 9349
" />
<path d="M5895 9495
L5909 9505
L5923 9524
L5923 9573
L5909 9592
L5895 9602
L5867 9611
L5839 9611
L5797 9602
L5629 9485
L5629 9611
" />
<path d="M5629 9805
L5629 9689
" />
<path d="M5629 9747
L5923 9747
L5881 9728
L5853 9708
L5839 9689
" />
</g>
<g style="fill:#008484; fill-opacity:0.0; 
stroke:#008484; stroke-width:47.2441; stroke-opacity:1; 
stroke-linecap:round; stroke-linejoin:round;">
<path d="M20876 17223
L21923 17223
" />
<path d="M20876 15200
L20876 17223
" />
<path d="M21923 15200
L21923 17223
" />
<path d="M20876 15200
L21923 15200
" />
<path d="M20876 14700
L20876 14176
" />
<path d="M20876 14176
L21400 14176
" />
<path d="M18423 15106
L18423 12956
" />
<path d="M18423 12956
L6376 12956
" />
<path d="M6376 12956
L6376 18043
" />
<path d="M6376 18043
L18423 18043
" />
<path d="M18423 18043
L18423 15893
" />
<path d="M18447 11976
L6352 11976
" />
<path d="M6352 11976
L6352 19023
" />
<path d="M6352 19023
L18447 19023
" />
<path d="M18447 19023
L18447 11976
" />
<path d="M18423.6 15106.3 A393.701 393.701 0.0 0 0 18423.6 15893.7" />
<path d="M16423 8106
L16423 7456
" />
<path d="M16423 7456
L8376 7456
" />
<path d="M8376 7456
L8376 9543
" />
<path d="M8376 9543
L16423 9543
" />
<path d="M16423 9543
L16423 8893
" />
<path d="M16447 6476
L8352 6476
" />
<path d="M8352 6476
L8352 10523
" />
<path d="M8352 10523
L16447 10523
" />
<path d="M16447 10523
L16447 6476
" />
<path d="M16423.6 8106.3 A393.701 393.701 0.0 0 0 16423.6 8893.7" />
<path d="M23222 11518
L24577 11518
" />
<path d="M24577 11518
L24577 7881
" />
<path d="M24577 7881
L23222 7881
" />
<path d="M23222 7881
L23222 11518
" />
<path d="M23900 12290
L23900 11518
" />
<path d="M23900 7109
L23900 7881
" />
<path d="M23200 15109
L23200 15881
" />
<path d="M23200 20290
L23200 19518
" />
<path d="M22522 15881
L22522 19518
" />
<path d="M23877 15881
L22522 15881
" />
<path d="M23877 19518
L23877 15881
" />
<path d="M22522 19518
L23877 19518
" />
<path d="M20423 17206
L20423 15056
" />
<path d="M20423 15056
L6376 15056
" />
<path d="M6376 15056
L6376 20143
" />
<path d="M6376 20143
L20423 20143
" />
<path d="M20423 20143
L20423 17993
" />
<path d="M20447 14076
L6352 14076
" />
<path d="M6352 14076
L6352 21123
" />
<path d="M6352 21123
L20447 21123
" />
<path d="M20447 21123
L20447 14076
" />
<path d="M20423.6 17206.3 A393.701 393.701 0.0 0 0 20423.6 17993.7" />
<path d="M20406 5976
L19756 5976
" />
<path d="M19756 5976
L19756 13023
" />
<path d="M19756 13023
L21843 13023
" />
<path d="M21843 13023
L21843 5976
" />
<path d="M21843 5976
L21193 5976
" />
<path d="M18776 5952
L18776 13047
" />
<path d="M18776 13047
L22823 13047
" />
<path d="M22823 13047
L22823 5952
" />
<path d="M22823 5952
L18776 5952
" />
<path d="M20406.3 5976.38 A393.701 393.701 0.0 0 0 21193.7 5976.38" />
<path d="M16447 11423
L16447 7376
" />
<path d="M8352 11423
L16447 11423
" />
<path d="M8352 7376
L8352 11423
" />
<path d="M16447 7376
L8352 7376
" />
<path d="M16423 10443
L16423 9793
" />
<path d="M8376 10443
L16423 10443
" />
<path d="M8376 8356
L8376 10443
" />
<path d="M16423 8356
L8376 8356
" />
<path d="M16423 9006
L16423 8356
" />
<path d="M16423.6 9006.3 A393.701 393.701 0.0 0 0 16423.6 9793.7" />
<path d="M21715 18784
L21839 18784
" />
<path d="M20760 18784
L20884 18784
" />
<path d="M21715 20847
L21839 20847
" />
<path d="M20760 20847
L20884 20847
" />
<path d="M21839 20847
L21839 18784
" />
<path d="M20760 20847
L20760 18784
" />
<path d="M16660 11147
L16660 9084
" />
<path d="M17739 11147
L17739 9084
" />
<path d="M16660 11147
L16784 11147
" />
<path d="M17615 11147
L17739 11147
" />
<path d="M16660 9084
L16784 9084
" />
<path d="M17615 9084
L17739 9084
" />
<path d="M16784 8315
L16660 8315
" />
<path d="M17739 8315
L17615 8315
" />
<path d="M16784 6252
L16660 6252
" />
<path d="M17739 6252
L17615 6252
" />
<path d="M16660 6252
L16660 8315
" />
<path d="M17739 6252
L17739 8315
" />
</g>
<g style="fill:#008484; fill-opacity:0.0; 
stroke:#008484; stroke-width:59.0551; stroke-opacity:1; 
stroke-linecap:round; stroke-linejoin:round;">
<text x="21400" y="13979.5"
textLength="741.119" font-size="524.934" lengthAdjust="spacingAndGlyphs"
text-anchor="middle" opacity="0">J1</text>
<path d="M21268 13567
L21268 13848
L21250 13904
L21212 13942
L21156 13960
L21118 13960
" />
<path d="M21662 13960
L21437 13960
" />
<path d="M21549 13960
L21549 13567
L21512 13623
L21474 13660
L21437 13679
" />
<g transform="rotate(-90 18817.3 15500)">
<text x="18817.3" y="15696.9"
textLength="751.687" font-size="524.934" lengthAdjust="spacingAndGlyphs"
text-anchor="middle" opacity="0">J2</text>
</g>
<path d="M18601 15631
L18882 15631
L18939 15649
L18976 15687
L18995 15743
L18995 15781
" />
<path d="M18639 15462
L18620 15443
L18601 15406
L18601 15312
L18620 15275
L18639 15256
L18676 15237
L18714 15237
L18770 15256
L18995 15481
L18995 15237
" />
<g transform="rotate(-90 16817.3 8500)">
<text x="16817.3" y="8696.85"
textLength="751.687" font-size="524.934" lengthAdjust="spacingAndGlyphs"
text-anchor="middle" opacity="0">J3</text>
</g>
<path d="M16601 8631
L16882 8631
L16939 8649
L16976 8687
L16995 8743
L16995 8781
" />
<path d="M16601 8481
L16601 8237
L16751 8368
L16751 8312
L16770 8275
L16789 8256
L16826 8237
L16920 8237
L16957 8256
L16976 8275
L16995 8312
L16995 8425
L16976 8462
L16957 8481
" />
<g transform="rotate(-90 22829.1 9700)">
<text x="22829.1" y="9896.85"
textLength="845.426" font-size="524.934" lengthAdjust="spacingAndGlyphs"
text-anchor="middle" opacity="0">R1</text>
</g>
<path d="M23007 9765
L22819 9896
" />
<path d="M23007 9990
L22613 9990
L22613 9840
L22632 9803
L22651 9784
L22688 9765
L22744 9765
L22782 9784
L22801 9803
L22819 9840
L22819 9990
" />
<path d="M23007 9390
L23007 9615
" />
<path d="M23007 9503
L22613 9503
L22669 9540
L22707 9578
L22726 9615
" />
<g transform="rotate(-90 22129.1 17700)">
<text x="22129.1" y="17896.9"
textLength="845.426" font-size="524.934" lengthAdjust="spacingAndGlyphs"
text-anchor="middle" opacity="0">R2</text>
</g>
<path d="M22307 17765
L22119 17896
" />
<path d="M22307 17990
L21913 17990
L21913 17840
L21932 17803
L21951 17784
L21988 17765
L22044 17765
L22082 17784
L22101 17803
L22119 17840
L22119 17990
" />
<path d="M21951 17615
L21932 17596
L21913 17559
L21913 17465
L21932 17428
L21951 17409
L21988 17390
L22026 17390
L22082 17409
L22307 17634
L22307 17390
" />
<g transform="rotate(-90 20817.3 17600)">
<text x="20817.3" y="17796.9"
textLength="864.173" font-size="524.934" lengthAdjust="spacingAndGlyphs"
text-anchor="middle" opacity="0">U1</text>
</g>
<path d="M20601 17899
L20920 17899
L20957 17881
L20976 17862
L20995 17824
L20995 17749
L20976 17712
L20957 17693
L20920 17674
L20601 17674
" />
<path d="M20995 17281
L20995 17506
" />
<path d="M20995 17393
L20601 17393
L20657 17431
L20695 17468
L20714 17506
" />
<text x="20800" y="5779.53"
textLength="864.173" font-size="524.934" lengthAdjust="spacingAndGlyphs"
text-anchor="middle" opacity="0">U2</text>
<path d="M20500 5367
L20500 5685
L20518 5723
L20537 5742
L20575 5760
L20650 5760
L20687 5742
L20706 5723
L20725 5685
L20725 5367
" />
<path d="M20893 5404
L20912 5385
L20949 5367
L21043 5367
L21081 5385
L21099 5404
L21118 5442
L21118 5479
L21099 5535
L20874 5760
L21118 5760
" />
<g transform="rotate(-90 16817.3 9400)">
<text x="16817.3" y="9596.85"
textLength="864.173" font-size="524.934" lengthAdjust="spacingAndGlyphs"
text-anchor="middle" opacity="0">U3</text>
</g>
<path d="M16601 9699
L16920 9699
L16957 9681
L16976 9662
L16995 9624
L16995 9549
L16976 9512
L16957 9493
L16920 9474
L16601 9474
" />
<path d="M16601 9325
L16601 9081
L16751 9212
L16751 9156
L16770 9118
L16789 9100
L16826 9081
L16920 9081
L16957 9100
L16976 9118
L16995 9156
L16995 9268
L16976 9306
L16957 9325
" />
<g transform="rotate(-90 20315.7 19815.7)">
<text x="20315.7" y="20012.6"
textLength="845.426" font-size="524.934" lengthAdjust="spacingAndGlyphs"
text-anchor="middle" opacity="0">C1</text>
</g>
<path d="M20456 19881
L20475 19900
L20493 19956
L20493 19993
L20475 20050
L20437 20087
L20400 20106
L20325 20125
L20268 20125
L20193 20106
L20156 20087
L20118 20050
L20100 19993
L20100 19956
L20118 19900
L20137 19881
" />
<path d="M20493 19506
L20493 19731
" />
<path d="M20493 19618
L20100 19618
L20156 19656
L20193 19693
L20212 19731
" />
<g transform="rotate(-90 16215.7 10115.7)">
<text x="16215.7" y="10312.6"
textLength="845.426" font-size="524.934" lengthAdjust="spacingAndGlyphs"
text-anchor="middle" opacity="0">C2</text>
</g>
<path d="M16356 10181
L16375 10200
L16393 10256
L16393 10293
L16375 10350
L16337 10387
L16300 10406
L16225 10425
L16168 10425
L16093 10406
L16056 10387
L16018 10350
L16000 10293
L16000 10256
L16018 10200
L16037 10181
" />
<path d="M16037 10031
L16018 10012
L16000 9975
L16000 9881
L16018 9843
L16037 9825
L16075 9806
L16112 9806
L16168 9825
L16393 10050
L16393 9806
" />
<g transform="rotate(-90 18184.3 7284.25)">
<text x="18184.3" y="7481.1"
textLength="845.426" font-size="524.934" lengthAdjust="spacingAndGlyphs"
text-anchor="middle" opacity="0">C3</text>
</g>
<path d="M18324 7349
L18343 7368
L18362 7424
L18362 7462
L18343 7518
L18306 7556
L18268 7574
L18193 7593
L18137 7593
L18062 7574
L18024 7556
L17987 7518
L17968 7462
L17968 7424
L17987 7368
L18006 7349
" />
<path d="M17968 7218
L17968 6974
L18118 7106
L18118 7049
L18137 7012
L18156 6993
L18193 6974
L18287 6974
L18324 6993
L18343 7012
L18362 7049
L18362 7162
L18343 7199
L18324 7218
" />
<g >
</g>
</g>
<g style="fill:#000000; fill-opacity:0.0; 
stroke:#000000; stroke-width:59.0551; stroke-opacity:1; 
stroke-linecap:round; stroke-linejoin:round;">
</g>
<g style="fill:#C2C200; fill-opacity:0.0; 
stroke:#C2C200; stroke-width:59.0551; stroke-opacity:1; 
stroke-linecap:round; stroke-linejoin:round;">
</g>
<g style="fill:#C2C200; fill-opacity:0.0; 
stroke:#C2C200; stroke-width:39.3701; stroke-opacity:1; 
stroke-linecap:round; stroke-linejoin:round;">
<path d="M25000 4700
L25000 22000
" />
<path d="M4700 4700
L25000 4700
" />
<path d="M4700 22000
L4700 4700
" />
<path d="M25000 22000
L4700 22000
" />
<g >
</g>
<g >
</g>
<g >
</g>
<g >
</g>
<g >
</g>
<g >
</g>
<g >
</g>
<g >
</g>
<g >
</g>
<g >
</g>
<g >
</g>
<g >
</g>
</g> 
</svg>
